<svg xmlns="http://www.w3.org/2000/svg" width="18" height="18" viewBox="0 0 18 18"><defs><style>.a{fill:#ff8a00;}</style></defs><path class="a" d="M18.071,2H3.929A1.929,1.929,0,0,0,2,3.929V18.071A1.929,1.929,0,0,0,3.929,20H18.071A1.929,1.929,0,0,0,20,18.071V3.929A1.929,1.929,0,0,0,18.071,2Zm.643,16.071a.643.643,0,0,1-.643.643H3.929a.643.643,0,0,1-.643-.643V14.51L7.143,11.2l3.439,2.867A.643.643,0,0,0,11.476,14l4.05-4.629,3.189,3.182Zm0-7.335L15.956,7.972A.643.643,0,0,0,15.018,8l-4.089,4.674L7.554,9.862a.643.643,0,0,0-.829,0L3.286,12.819V3.929a.643.643,0,0,1,.643-.643H18.071a.643.643,0,0,1,.643.643ZM6.179,3.929a2.25,2.25,0,1,0,2.25,2.25A2.25,2.25,0,0,0,6.179,3.929Zm0,3.214a.964.964,0,1,1,.964-.964A.964.964,0,0,1,6.179,7.143Z" transform="translate(-2 -2)"/></svg>