<svg xmlns="http://www.w3.org/2000/svg" width="30" height="30" viewBox="0 0 30 30"><defs><style>.a{fill:#131313;opacity:0.95;}.b{fill:#fff;}</style></defs><rect class="a" width="30" height="30" rx="6"/><path class="b" d="M71.034,354.83a1.393,1.393,0,0,1,0-1.97l5.4-5.4a.838.838,0,0,0-1.185-1.185l-5.4,5.4a1.393,1.393,0,0,1-1.97,0l-5.4-5.4a.838.838,0,1,0-1.185,1.185l5.4,5.4a1.393,1.393,0,0,1,0,1.97l-5.4,5.4a.838.838,0,1,0,1.185,1.185l5.4-5.4a1.393,1.393,0,0,1,1.97,0l5.4,5.4a.838.838,0,1,0,1.185-1.185Z" transform="translate(-54.048 -339.029)"/></svg>